<svg width="21" height="26" viewBox="0 0 21 26" fill="none" xmlns="http://www.w3.org/2000/svg">
<path fill-rule="evenodd" clip-rule="evenodd" d="M14.0575 1.50276C14.0575 0.973715 13.7129 0.54483 13.2877 0.54483C12.8626 0.54483 12.518 0.973715 12.518 1.50276V4.72603C12.0065 4.68133 11.4928 4.65154 10.9784 4.63668V2.78C10.9784 2.25096 10.6337 1.82207 10.2086 1.82207C9.78348 1.82207 9.43883 2.25096 9.43883 2.78V4.63668C8.92441 4.65154 8.4107 4.68133 7.89926 4.72603V1.50276C7.89926 0.973715 7.55461 0.54483 7.12947 0.54483C6.70434 0.54483 6.35969 0.973715 6.35969 1.50276V4.91559C5.02546 5.218 3.96053 6.52987 3.73001 8.20828H0.9712C0.546064 8.20828 0.201416 8.63716 0.201416 9.16621C0.201416 9.69526 0.546064 10.1241 0.9712 10.1241H3.57553C3.53806 10.7621 3.51308 11.4009 3.5006 12.04H1.99758C1.57244 12.04 1.22779 12.4689 1.22779 12.9979C1.22779 13.527 1.57244 13.9559 1.99758 13.9559H3.5006C3.51308 14.595 3.53806 15.2337 3.57553 15.8717H0.9712C0.546064 15.8717 0.201416 16.3006 0.201416 16.8297C0.201416 17.3587 0.546064 17.7876 0.9712 17.7876H3.73001C3.96054 19.466 5.02546 20.7779 6.35969 21.0803V24.4931C6.35969 25.0221 6.70434 25.451 7.12947 25.451C7.55461 25.451 7.89926 25.0221 7.89926 24.4931V21.2699C8.4107 21.3146 8.92441 21.3443 9.43883 21.3591V23.2159C9.43883 23.7449 9.78348 24.1738 10.2086 24.1738C10.6337 24.1738 10.9784 23.7449 10.9784 23.2159V21.3591C11.4928 21.3443 12.0065 21.3146 12.518 21.2699V24.4931C12.518 25.0221 12.8626 25.451 13.2877 25.451C13.7129 25.451 14.0575 25.0221 14.0575 24.4931V21.0803C15.3917 20.7779 16.4567 19.466 16.6872 17.7876H19.446C19.8711 17.7876 20.2158 17.3587 20.2158 16.8297C20.2158 16.3006 19.8711 15.8717 19.446 15.8717H16.8417C16.8792 15.2337 16.9042 14.595 16.9166 13.9559H18.4196C18.8448 13.9559 19.1894 13.527 19.1894 12.9979C19.1894 12.4689 18.8448 12.04 18.4196 12.04H16.9166C16.9042 11.4009 16.8792 10.7621 16.8417 10.1241H19.446C19.8711 10.1241 20.2158 9.69526 20.2158 9.16621C20.2158 8.63716 19.8711 8.20828 19.446 8.20828H16.6872C16.4567 6.52987 15.3917 5.21799 14.0575 4.91559V1.50276ZM6.75315 6.77897C9.03043 6.46224 11.3868 6.46224 13.6641 6.77897C14.4575 6.88932 15.091 7.66909 15.1823 8.64105C15.4544 11.5357 15.4544 14.4601 15.1823 17.3549C15.091 18.3267 14.4575 19.1066 13.6641 19.2169C11.3868 19.5336 9.03043 19.5336 6.75315 19.2169C5.95968 19.1066 5.32622 18.3267 5.23486 17.3549C4.9628 14.4601 4.9628 11.5357 5.23486 8.64105C5.32622 7.66909 5.95968 6.88932 6.75315 6.77897Z" fill="black"/>
</svg>
